<mxfile host="app.diagrams.net" modified="2023-04-04T19:01:01.339Z" agent="Mozilla/5.0 (Macintosh; Intel Mac OS X 10_15_7) AppleWebKit/537.36 (KHTML, like Gecko) Chrome/111.0.0.0 Safari/537.36" version="21.1.0" etag="mJaXGB_arIwMHbrXmRLf" type="github">
  <diagram name="PÃ¡gina-1" id="WDU8V-V7WuO2UJf8U7cD">
    <mxGraphModel>
      <root>
        <mxCell id="0" />
        <mxCell id="1" parent="0" />
      </root>
    </mxGraphModel>
  </diagram>
</mxfile>
